<svg width="196" height="40" viewBox="0 0 196 40" fill="none" xmlns="http://www.w3.org/2000/svg">
<path d="M0 24.0918C0 31.6728 5.65958 39.275 15.3298 39.275C25 39.275 24.5957 36.3738 24.5957 36.3738L22.8511 32.2763C22.8511 32.2763 6.07446 37.8138 6.07446 24.4941C6.07446 11.1744 16.4681 12.3073 21.2021 13.3343L23.2553 9.34266C23.2553 9.34266 1.12766 2.37574 0 24.0918Z" fill="white"/>
<path d="M57.3191 8.28406V38.587H63.4999V14.3722L75.6063 38.587H84.1914V8.28406H78.3616V32.4247L65.5957 8.28406H57.3191Z" fill="white"/>
<path d="M113.979 8.28406H90.5215V13.5039H98.447V38.587H104.883V13.5039H111.266L113.979 8.28406Z" fill="white"/>
<path d="M125.319 25.6696H136.149V20.2273H127.128L125.319 22.4085V13.4298H135.553L137.734 8.35817H125.319V8.28406H119.085V8.35817V13.4298V33.5153V35.4741V38.587H135.553L137.734 33.5153H125.319V25.6696Z" fill="white"/>
<path d="M37.4574 25.6696H48.2872V20.2273H39.2659L37.4574 22.4085V13.4298H47.6915L49.8723 8.35817H37.4574V8.28406H31.2234V8.35817V13.4298V33.5153V35.4741V38.587H47.6915L49.8723 33.5153H37.4574V25.6696Z" fill="white"/>
<path d="M163.5 33.515L158.468 25.521C161.521 24.6528 165.128 22.4823 165.128 17.1248C165.128 7.81789 156.138 8.28377 156.138 8.28377H145.074V38.5867H151.309V26.1034H152.511L160.234 38.5867H165.787L168.383 33.515H163.489H163.5ZM151.309 21.8788V13.4295H155.532C155.532 13.4295 160 13.3025 160 17.1883C160 21.0741 156.5 21.8682 155.66 21.8682H151.319L151.309 21.8788Z" fill="white"/>
<path d="M176.255 7.43979L183.787 0.7164H186.33V12.6703C186.33 12.6703 184.255 12.9032 184.255 16.4396C184.255 19.976 186.33 20.1136 186.33 20.1136V32.5969H176.808V31.0722L182.787 28.5523V6.53981L180.734 7.43979H176.255Z" fill="white"/>
<path d="M187.457 0.7164H190.542V28.5523L195.851 31.0722V32.5969H187.457V19.4889C187.457 19.4889 185.361 19.0231 185.361 16.3549C185.361 13.6867 186.34 13.4644 187.457 12.9667V0.7164Z" fill="white"/>
</svg>
